<?xml version="1.0" encoding="UTF-8" standalone="no"?><!DOCTYPE svg PUBLIC "-//W3C//DTD SVG 1.1//EN" "http://www.w3.org/Graphics/SVG/1.1/DTD/svg11.dtd"><svg width="100%" height="100%" viewBox="0 0 4267 4267" version="1.1" xmlns="http://www.w3.org/2000/svg" xmlns:xlink="http://www.w3.org/1999/xlink" xml:space="preserve" xmlns:serif="http://www.serif.com/" style="fill-rule:evenodd;clip-rule:evenodd;"><g><path d="M1924.56,132.069c29.951,-3.744 115.719,-6.807 190.597,-6.807c75.626,0 176.983,4.561 228.035,10.211c50.508,5.582 117.966,14.839 149.754,20.421c31.789,5.582 94.618,19.4 139.544,30.632c44.926,11.232 109.253,29.611 142.947,40.842c33.695,11.232 102.65,38.8 153.158,61.263c50.508,22.463 122.526,57.655 159.965,78.281c37.439,20.625 104.828,61.944 149.754,91.895c44.926,29.951 116.877,83.522 159.965,119.123c43.088,35.601 111.975,98.361 153.158,139.544c41.182,41.182 99.383,103.943 129.333,139.544c29.951,35.601 83.522,109.048 119.123,163.368c35.601,54.32 86.109,141.586 112.316,194c26.207,52.414 58.404,121.301 71.474,153.158c13.069,31.857 37.575,102.241 54.456,156.561c16.881,54.32 38.255,136.957 47.649,183.79c9.394,46.832 21.578,127.972 27.228,180.386c5.65,52.686 10.211,157.719 10.211,234.842c0,78.689 -4.425,179.637 -10.211,231.439c-5.65,50.508 -17.834,130.15 -27.228,176.983c-9.394,46.832 -27.773,121.846 -40.842,166.772c-13.069,44.926 -39.14,121.505 -57.86,170.176c-18.719,48.67 -57.043,129.878 -85.088,180.386c-28.045,50.508 -70.929,122.526 -95.298,159.965c-24.369,37.439 -67.253,98.702 -95.298,136.14c-28.045,37.439 -101.561,118.578 -163.368,180.386c-61.808,61.808 -146.011,138.387 -187.193,170.176c-41.182,31.789 -105.509,77.736 -142.947,102.105c-37.439,24.369 -104.828,64.122 -149.754,88.491c-44.926,24.369 -116.877,59.561 -159.965,78.281c-43.088,18.719 -125.794,49.351 -183.79,68.07c-57.996,18.719 -143.764,41.659 -190.597,51.053c-46.832,9.394 -120.28,21.578 -163.368,27.228c-43.088,5.65 -118.102,11.776 -166.772,13.614c-48.67,1.838 -134.439,0.34 -190.597,-3.404c-56.158,-3.744 -140.361,-12.933 -187.193,-20.421c-46.832,-7.488 -126.406,-24.369 -176.983,-37.439c-50.576,-13.069 -133.213,-39.14 -183.79,-57.86c-50.576,-18.719 -148.529,-61.604 -343.755,-156.561l-251.86,85.088c-138.523,46.832 -331.502,112.656 -428.842,146.351c-97.34,33.695 -186.172,61.263 -197.404,61.263c-11.232,0 -32.674,-7.624 -47.649,-17.018c-14.975,-9.394 -33.354,-26.207 -40.842,-37.439c-10.891,-16.337 -12.933,-27.909 -10.211,-57.86c1.906,-20.557 23.348,-103.263 47.649,-183.79c24.301,-80.527 77.94,-262.751 119.123,-405.018c41.182,-142.267 77.94,-273.983 81.684,-292.702c6.739,-33.831 6.467,-34.716 -40.842,-129.333c-26.207,-52.414 -56.839,-118.306 -68.07,-146.351c-11.232,-28.045 -34.239,-93.937 -51.053,-146.351c-16.813,-52.414 -39.821,-139.68 -51.053,-194c-11.232,-54.32 -25.05,-144.649 -30.632,-200.807c-7.284,-72.903 -9.258,-146.827 -6.807,-258.667c2.382,-108.98 7.556,-182.428 17.018,-241.649c7.488,-46.832 21.238,-118.783 30.632,-159.965c9.394,-41.182 26.207,-103.943 37.439,-139.544c11.232,-35.601 29.611,-89.172 40.842,-119.123c11.232,-29.951 34.239,-85.088 51.053,-122.526c16.813,-37.439 47.445,-98.702 68.07,-136.14c20.557,-37.439 61.944,-104.828 91.895,-149.754c29.951,-44.926 72.835,-104.692 95.298,-132.737c22.463,-28.045 71.474,-83.25 108.912,-122.526c37.439,-39.277 106.326,-103.671 153.158,-142.947c46.832,-39.277 112.656,-91.418 146.351,-115.719c33.695,-24.301 94.958,-64.19 136.14,-88.491c41.182,-24.301 105.509,-59.561 142.947,-78.281c37.439,-18.719 91.078,-43.225 119.123,-54.456c28.045,-11.232 81.684,-31.108 119.123,-44.246c37.439,-13.138 98.702,-31.448 136.14,-40.842c37.439,-9.394 104.828,-23.144 149.754,-30.632c44.926,-7.488 106.19,-16.677 136.14,-20.421" style="fill:none;fill-rule:nonzero;stroke:#3bb172;stroke-width:6.81px;"/><path d="M2026.666,506.455l6.807,707.93l-44.246,-3.404c-24.301,-1.838 -74.877,-6.467 -112.316,-10.211c-37.439,-3.744 -94.073,-11.436 -125.93,-17.018c-31.857,-5.582 -86.926,-16.337 -122.526,-23.825c-42.272,-8.917 -65.824,-17.154 -68.07,-23.825c-1.838,-5.582 14.975,-51.529 37.439,-102.105c22.463,-50.576 60.787,-127.155 85.088,-170.176c24.301,-43.02 62.625,-102.786 85.088,-132.737c22.463,-29.951 53.095,-68.206 68.07,-85.088c14.975,-16.881 47.173,-45.947 71.474,-64.667c24.301,-18.719 61.127,-43.225 119.123,-74.877" style="fill:none;fill-rule:nonzero;stroke:#2c3134;stroke-width:6.81px;"/><path d="M2237.683,506.455l44.246,20.421c24.369,11.232 61.127,35.737 81.684,54.456c20.557,18.719 54.32,52.414 74.877,74.877c20.557,22.463 61.944,77.6 91.895,122.526c29.951,44.926 74.333,121.505 98.702,170.176c24.369,48.67 51.869,109.933 61.263,136.14c11.368,31.789 14.771,49.895 10.211,54.456c-3.744,3.744 -34.375,12.933 -68.07,20.421c-33.695,7.488 -88.832,18.243 -122.526,23.825c-33.695,5.582 -87.334,13.274 -119.123,17.018c-31.789,3.744 -79.302,6.807 -105.509,6.807c-26.207,0 -47.649,-1.566 -47.649,-3.404l0,-697.72" style="fill:none;fill-rule:nonzero;stroke:#2c3235;stroke-width:6.81px;"/><path d="M1553.578,598.35c31.857,-13.138 60.923,-22.259 64.667,-20.421c3.744,1.838 -22.259,46.288 -57.86,98.702c-39.957,58.949 -85.428,138.183 -119.123,207.614c-29.951,61.74 -60.582,129.197 -68.07,149.754c-7.488,20.557 -15.18,39.004 -17.018,40.842c-1.838,1.838 -30.972,-7.284 -64.667,-20.421c-33.695,-13.138 -99.519,-43.769 -146.351,-68.07c-46.832,-24.301 -91.214,-48.874 -98.702,-54.456c-13.138,-9.87 -12.048,-11.572 30.632,-47.649c24.301,-20.557 73.312,-58.881 108.912,-85.088c35.601,-26.207 90.67,-62.965 122.526,-81.684c31.857,-18.719 86.926,-47.785 122.526,-64.667c35.601,-16.881 90.67,-41.319 122.526,-54.456" style="fill:none;fill-rule:nonzero;stroke:#2a3133;stroke-width:6.81px;"/><path d="M2639.298,574.526l34.035,10.211c18.719,5.582 60.106,20.898 91.895,34.035c31.789,13.138 83.931,37.575 115.719,54.456c31.789,16.881 82.365,45.947 112.316,64.667c29.951,18.719 91.214,61.604 136.14,95.298c44.926,33.695 86.245,67.39 91.895,74.877c9.053,12.116 9.053,14.771 0,23.825c-5.65,5.582 -50.032,30.155 -98.702,54.456c-48.67,24.301 -116.06,54.933 -149.754,68.07c-33.695,13.138 -62.829,22.259 -64.667,20.421c-1.838,-1.838 -14.159,-32.469 -27.228,-68.07c-13.069,-35.601 -43.701,-102.922 -68.07,-149.754c-24.369,-46.832 -73.312,-129.47 -173.579,-282.491" style="fill:none;fill-rule:nonzero;stroke:#2a3033;stroke-width:6.81px;"/><path d="M852.455,1119.087c16.881,-22.463 33.695,-40.842 37.439,-40.842c3.744,0 40.502,19.945 81.684,44.246c41.182,24.301 100.88,56.498 132.737,71.474c31.857,14.975 80.867,36.418 108.912,47.649c31.789,12.729 51.053,24.301 51.053,30.632c0,5.582 -15.316,46.968 -34.035,91.895c-18.719,44.926 -60.038,142.947 -91.895,217.825c-31.857,74.877 -83.862,198.969 -115.719,275.684c-31.857,76.715 -62.488,148.733 -78.281,180.386l-428.842,0l3.404,-54.456c1.838,-29.951 9.53,-89.717 17.018,-132.737c7.488,-43.02 22.804,-113.541 34.035,-156.561c11.232,-43.02 34.171,-113.541 51.053,-156.561c16.881,-43.02 49.011,-115.039 71.474,-159.965c22.463,-44.926 60.787,-112.316 85.088,-149.754c24.301,-37.439 57.996,-86.449 74.877,-108.912" style="fill:none;fill-rule:nonzero;stroke:#2d3236;stroke-width:6.81px;"/><path d="M3333.614,1102.07c18.719,-13.138 38.596,-22.259 44.246,-20.421c5.65,1.838 33.218,34.035 61.263,71.474c28.045,37.439 67.934,97.136 88.491,132.737c20.557,35.601 52.754,98.361 71.474,139.544c18.719,41.182 46.288,111.635 61.263,156.561c14.975,44.926 28.794,92.371 34.035,129.333l-619.439,0l-3.404,-30.632c-1.838,-16.881 -11.027,-68.887 -20.421,-115.719c-9.394,-46.832 -29.27,-131.035 -44.246,-187.193c-14.975,-56.158 -25.662,-103.671 -23.825,-105.509c1.838,-1.838 30.972,-14.091 64.667,-27.228c33.695,-13.138 104.147,-45.267 156.561,-71.474c52.414,-26.207 110.614,-58.336 129.333,-71.474" style="fill:none;fill-rule:nonzero;stroke:#2d3235;stroke-width:6.81px;"/><path d="M2680.14,1357.333c44.926,-11.232 87.811,-18.855 95.298,-17.018c11.504,2.859 17.834,21.51 40.842,119.123c14.975,63.646 31.789,140.225 37.439,170.176c5.65,29.951 10.211,60.582 10.211,68.07c0,13.41 -4.561,13.614 -626.246,13.614l0,-299.509l85.088,-3.404c46.832,-1.838 127.972,-9.53 180.386,-17.018c52.414,-7.488 132.056,-22.804 176.983,-34.035" style="fill:none;fill-rule:nonzero;stroke:#2c3235;stroke-width:6.81px;"/><path d="M1611.437,1364.14l81.684,13.614c44.926,7.488 119.94,18.243 166.772,23.825c46.832,5.582 105.032,10.211 129.333,10.211c34.784,0 44.246,2.178 44.246,10.211c0,5.582 1.566,213.945 3.404,462.877c2.246,299.509 1.089,452.667 -3.404,452.667c-3.744,0 -29.815,-55.137 -57.86,-122.526c-28.045,-67.39 -101.629,-240.424 -163.368,-384.597c-61.74,-144.173 -132.26,-308.018 -200.807,-466.281" style="fill:none;fill-rule:nonzero;stroke:#2b3133;stroke-width:6.81px;"/><path d="M1393.613,1500.28c11.232,-29.951 23.484,-52.891 27.228,-51.053c3.744,1.838 34.375,67.73 68.07,146.351c33.695,78.621 87.266,205.776 119.123,282.491c31.857,76.715 59.425,144.173 61.263,149.754c2.995,8.985 -27.637,10.211 -248.456,10.211c-220.82,0 -251.451,-1.225 -248.456,-10.211c1.838,-5.582 47.785,-114.358 102.105,-241.649c54.32,-127.291 107.891,-255.944 119.123,-285.895" style="fill:none;fill-rule:nonzero;stroke:#2c3134;stroke-width:6.81px;"/><path d="M2237.683,1915.509l507.123,0c446.268,0 507.123,1.225 507.123,10.211c0,5.582 -6.126,27.092 -13.614,47.649c-7.488,20.557 -30.495,72.699 -51.053,115.719c-20.557,43.02 -54.32,104.352 -74.877,136.14c-20.557,31.789 -52.754,77.736 -105.509,146.351l-27.228,-27.228c-14.975,-14.975 -45.607,-54.797 -68.07,-88.491c-22.463,-33.695 -56.158,-90.329 -108.912,-190.597l-211.018,0l3.404,17.018c1.838,9.394 23.28,58.404 47.649,108.912c24.369,50.508 62.625,119.463 85.088,153.158c22.463,33.695 59.221,84.271 81.684,112.316c22.463,28.045 40.842,54.116 40.842,57.86c0,3.744 -29.066,28.249 -64.667,54.456c-35.601,26.207 -86.109,61.399 -112.316,78.281c-26.207,16.881 -84.407,49.011 -129.333,71.474c-49.895,24.982 -124.024,54.048 -190.597,74.877c-59.902,18.719 -110.478,32.469 -112.316,30.632c-1.838,-1.838 -3.404,-207.07 -3.404,-908.737" style="fill:none;fill-rule:nonzero;stroke:#2c3235;stroke-width:6.81px;"/><path d="M3469.754,1915.509l272.281,0l3.404,20.421c1.838,11.232 4.969,74.06 6.807,139.544c1.838,65.484 0.34,155.881 -3.404,200.807c-3.744,44.926 -14.431,119.94 -23.825,166.772c-9.394,46.832 -30.768,126.474 -47.649,176.983c-16.881,50.508 -36.758,107.211 -44.246,125.93c-7.488,18.719 -16.677,34.035 -20.421,34.035c-3.744,0 -41.999,-15.316 -85.088,-34.035c-43.088,-18.719 -101.288,-46.288 -129.333,-61.263c-28.045,-14.975 -77.124,-44.109 -108.912,-64.667c-31.789,-20.557 -76.239,-51.189 -98.702,-68.07c-22.463,-16.881 -40.842,-33.695 -40.842,-37.439c0,-3.744 18.379,-28.249 40.842,-54.456c22.463,-26.207 60.719,-78.281 85.088,-115.719c24.369,-37.439 59.561,-97.136 78.281,-132.737c18.719,-35.601 44.79,-90.67 57.86,-122.526c13.069,-31.857 31.448,-83.862 57.86,-173.579" style="fill:none;fill-rule:nonzero;stroke:#2d3235;stroke-width:6.81px;"/><path d="M515.507,2235.439l170.176,0c166.772,0 170.107,0.272 166.772,13.614c-1.838,7.488 -30.972,77.94 -64.667,156.561c-33.695,78.621 -79.642,187.329 -102.105,241.649c-27.228,65.824 -43.088,96.455 -47.649,91.895c-3.744,-3.744 -22.123,-52.754 -40.842,-108.912c-18.719,-56.158 -41.659,-137.298 -51.053,-180.386c-9.394,-43.088 -20.081,-108.912 -30.632,-214.421" style="fill:none;fill-rule:nonzero;stroke:#2b3133;stroke-width:6.81px;"/><path d="M1080.49,2235.439l680.702,6.807l34.035,74.877c18.719,41.182 55.477,125.385 81.684,187.193c26.207,61.808 69.091,162.824 95.298,224.632c26.207,61.808 46.084,113.881 44.246,115.719c-1.838,1.838 -40.161,6.467 -85.088,10.211c-44.926,3.744 -115.379,11.368 -156.561,17.018c-41.182,5.65 -122.39,22.463 -180.386,37.439c-57.996,14.975 -107.074,25.662 -108.912,23.825c-1.838,-1.838 -12.593,-34.035 -23.825,-71.474c-11.232,-37.439 -31.108,-120.144 -44.246,-183.79c-13.138,-63.646 -26.888,-137.161 -30.632,-163.368c-3.744,-26.207 -8.373,-55.273 -13.614,-81.684l-204.211,0l10.211,74.877c5.582,41.182 20.898,128.517 34.035,194c13.138,65.484 34.512,155.881 47.649,200.807c13.138,44.926 23.825,86.245 23.825,91.895c0,6.943 -20.829,16.745 -64.667,30.632c-35.601,11.232 -112.18,44.926 -170.176,74.877c-57.996,29.951 -114.698,60.582 -146.351,81.684l20.421,27.228c11.232,14.975 41.863,48.67 115.719,122.526l85.088,-40.842c46.832,-22.463 115.719,-53.095 153.158,-68.07c37.439,-14.975 72.699,-27.228 78.281,-27.228c6.331,0 14.091,12.865 20.421,34.035c5.582,18.719 22.463,60.106 37.439,91.895c14.975,31.789 44.109,88.491 64.667,125.93c20.557,37.439 60.446,101.765 88.491,142.947c28.045,41.182 49.487,76.443 47.649,78.281c-1.838,1.838 -32.469,-8.849 -68.07,-23.825c-35.601,-14.975 -112.18,-51.733 -170.176,-81.684c-72.835,-37.575 -112.86,-54.456 -129.333,-54.456c-13.138,0 -62.08,10.755 -108.912,23.825c-46.832,13.069 -198.425,63.646 -336.948,112.316c-138.523,48.67 -253.425,86.926 -255.263,85.088c-1.838,-1.838 40.978,-159.625 95.298,-350.562c80.867,-284.465 106.053,-363.767 139.544,-439.053c22.463,-50.508 76.102,-176.166 119.123,-279.088c43.02,-102.922 90.533,-214.762 105.509,-248.456c14.975,-33.695 37.915,-87.334 74.877,-176.983" style="fill:none;fill-rule:nonzero;stroke:#2c3235;stroke-width:6.81px;"/><path d="M2993.263,2657.474l40.842,27.228c22.463,14.975 73.039,51.733 112.316,81.684c39.277,29.951 97.545,68.206 129.333,85.088c31.789,16.881 96.115,47.513 142.947,68.07c46.832,20.557 88.151,40.502 91.895,44.246c4.561,4.561 -4.561,23.825 -27.228,57.86c-18.719,28.045 -52.414,75.558 -115.719,159.965l-27.228,-17.018c-14.975,-9.394 -70.112,-38.46 -122.526,-64.667c-52.414,-26.207 -144.309,-66.028 -204.211,-88.491c-59.902,-22.463 -151.797,-53.095 -204.211,-68.07c-52.414,-14.975 -112.18,-30.291 -170.176,-40.842l64.667,-37.439c35.601,-20.557 92.235,-55.818 125.93,-78.281c33.695,-22.463 84.271,-60.719 163.368,-129.333" style="fill:none;fill-rule:nonzero;stroke:#2b3133;stroke-width:6.81px;"/><path d="M1883.718,3062.492c37.439,-5.65 86.449,-10.211 149.754,-10.211l0,347.158c0,304.07 -1.293,347.158 -10.211,347.158c-5.582,0 -28.589,-10.755 -51.053,-23.825c-22.463,-13.069 -68.411,-51.393 -102.105,-85.088c-33.695,-33.695 -78.145,-84.271 -98.702,-112.316c-20.557,-28.045 -55.818,-81.684 -78.281,-119.123c-22.463,-37.439 -56.158,-98.702 -74.877,-136.14c-18.719,-37.439 -40.161,-83.386 -47.649,-102.105c-7.488,-18.719 -12.048,-35.601 -10.211,-37.439c1.838,-1.838 32.469,-11.027 68.07,-20.421c35.601,-9.394 92.235,-21.578 125.93,-27.228c33.695,-5.65 91.895,-14.771 129.333,-20.421" style="fill:none;fill-rule:nonzero;stroke:#2c3134;stroke-width:6.81px;"/><path d="M2237.683,3052.281l71.474,3.404c39.277,1.838 117.421,11.027 173.579,20.421c56.158,9.394 128.176,24.641 159.965,34.035c52.618,15.452 57.86,18.583 57.86,34.035c0,9.394 -27.568,73.72 -61.263,142.947c-33.695,69.227 -78.145,150.435 -98.702,180.386c-20.557,29.951 -51.189,71.338 -68.07,91.895c-16.881,20.557 -49.011,55.818 -71.474,78.281c-22.463,22.463 -63.85,56.158 -91.895,74.877c-28.045,18.719 -55.613,34.035 -61.263,34.035c-5.65,0 -10.211,-1.566 -10.211,-3.404l0,-690.913" style="fill:none;fill-rule:nonzero;stroke:#2d3335;stroke-width:6.81px;"/><path d="M2887.754,3239.474c10.483,-27.228 20.966,-44.246 27.228,-44.246c5.65,0 43.905,13.75 85.088,30.632c41.182,16.881 105.509,45.947 142.947,64.667c37.439,18.719 66.505,37.098 64.667,40.842c-1.838,3.744 -24.846,26.684 -51.053,51.053c-26.207,24.369 -75.218,62.625 -108.912,85.088c-33.695,22.463 -98.021,62.284 -142.947,88.491c-44.926,26.207 -119.94,62.965 -166.772,81.684c-46.832,18.719 -86.653,32.469 -88.491,30.632c-1.838,-1.838 2.723,-11.027 10.211,-20.421c7.488,-9.394 38.119,-53.775 68.07,-98.702c29.951,-44.926 74.333,-123.071 98.702,-173.579c24.369,-50.508 51.869,-111.771 61.263,-136.14" style="fill:none;fill-rule:nonzero;stroke:#2c3234;stroke-width:6.81px;"/></g><path d="M1924.56,132.069c29.951,-3.744 115.719,-6.807 190.597,-6.807c75.626,0 176.983,4.561 228.035,10.211c50.508,5.582 117.966,14.839 149.754,20.421c31.789,5.582 94.618,19.4 139.544,30.632c44.926,11.232 109.253,29.611 142.947,40.842c33.695,11.232 102.65,38.8 153.158,61.263c50.508,22.463 122.526,57.655 159.965,78.281c37.439,20.625 104.828,61.944 149.754,91.895c44.926,29.951 116.877,83.522 159.965,119.123c43.088,35.601 111.975,98.361 153.158,139.544c41.182,41.182 99.383,103.943 129.333,139.544c29.951,35.601 83.522,109.048 119.123,163.368c35.601,54.32 86.109,141.586 112.316,194c26.207,52.414 58.404,121.301 71.474,153.158c13.069,31.857 37.575,102.241 54.456,156.561c16.881,54.32 38.255,136.957 47.649,183.79c9.394,46.832 21.578,127.972 27.228,180.386c5.65,52.686 10.211,157.719 10.211,234.842c0,78.689 -4.425,179.637 -10.211,231.439c-5.65,50.508 -17.834,130.15 -27.228,176.983c-9.394,46.832 -27.773,121.846 -40.842,166.772c-13.069,44.926 -39.14,121.505 -57.86,170.176c-18.719,48.67 -57.043,129.878 -85.088,180.386c-28.045,50.508 -70.929,122.526 -95.298,159.965c-24.369,37.439 -67.253,98.702 -95.298,136.14c-28.045,37.439 -101.561,118.578 -163.368,180.386c-61.808,61.808 -146.011,138.387 -187.193,170.176c-41.182,31.789 -105.509,77.736 -142.947,102.105c-37.439,24.369 -104.828,64.122 -149.754,88.491c-44.926,24.369 -116.877,59.561 -159.965,78.281c-43.088,18.719 -125.794,49.351 -183.79,68.07c-57.996,18.719 -143.764,41.659 -190.597,51.053c-46.832,9.394 -120.28,21.578 -163.368,27.228c-43.088,5.65 -118.102,11.776 -166.772,13.614c-48.67,1.838 -134.439,0.34 -190.597,-3.404c-56.158,-3.744 -140.361,-12.933 -187.193,-20.421c-46.832,-7.488 -126.406,-24.369 -176.983,-37.439c-50.576,-13.069 -133.213,-39.14 -183.79,-57.86c-50.576,-18.719 -148.529,-61.604 -343.755,-156.561l-251.86,85.088c-138.523,46.832 -331.502,112.656 -428.842,146.351c-97.34,33.695 -186.172,61.263 -197.404,61.263c-11.232,0 -32.674,-7.624 -47.649,-17.018c-14.975,-9.394 -33.354,-26.207 -40.842,-37.439c-10.891,-16.337 -12.933,-27.909 -10.211,-57.86c1.906,-20.557 23.348,-103.263 47.649,-183.79c24.301,-80.527 77.94,-262.751 119.123,-405.018c41.182,-142.267 77.94,-273.983 81.684,-292.702c6.739,-33.831 6.467,-34.716 -40.842,-129.333c-26.207,-52.414 -56.839,-118.306 -68.07,-146.351c-11.232,-28.045 -34.239,-93.937 -51.053,-146.351c-16.813,-52.414 -39.821,-139.68 -51.053,-194c-11.232,-54.32 -25.05,-144.649 -30.632,-200.807c-7.284,-72.903 -9.258,-146.827 -6.807,-258.667c2.382,-108.98 7.556,-182.428 17.018,-241.649c7.488,-46.832 21.238,-118.783 30.632,-159.965c9.394,-41.182 26.207,-103.943 37.439,-139.544c11.232,-35.601 29.611,-89.172 40.842,-119.123c11.232,-29.951 34.239,-85.088 51.053,-122.526c16.813,-37.439 47.445,-98.702 68.07,-136.14c20.557,-37.439 61.944,-104.828 91.895,-149.754c29.951,-44.926 72.835,-104.692 95.298,-132.737c22.463,-28.045 71.474,-83.25 108.912,-122.526c37.439,-39.277 106.326,-103.671 153.158,-142.947c46.832,-39.277 112.656,-91.418 146.351,-115.719c33.695,-24.301 94.958,-64.19 136.14,-88.491c41.182,-24.301 105.509,-59.561 142.947,-78.281c37.439,-18.719 91.078,-43.225 119.123,-54.456c28.045,-11.232 81.684,-31.108 119.123,-44.246c37.439,-13.138 98.702,-31.448 136.14,-40.842c37.439,-9.394 104.828,-23.144 149.754,-30.632c44.926,-7.488 106.19,-16.677 136.14,-20.421Zm102.105,374.386c-57.996,31.653 -94.822,56.158 -119.123,74.877c-24.301,18.719 -56.498,47.785 -71.474,64.667c-14.975,16.881 -45.607,55.137 -68.07,85.088c-22.463,29.951 -60.787,89.717 -85.088,132.737c-24.301,43.02 -62.625,119.599 -85.088,170.176c-22.463,50.576 -39.277,96.524 -37.439,102.105c2.246,6.671 25.799,14.907 68.07,23.825c35.601,7.488 90.67,18.243 122.526,23.825c31.857,5.582 88.491,13.274 125.93,17.018c37.439,3.744 88.015,8.373 112.316,10.211l44.246,3.404l-6.807,-707.93Zm211.018,0l0,697.72c0,1.838 21.442,3.404 47.649,3.404c26.207,0 73.72,-3.063 105.509,-6.807c31.789,-3.744 85.428,-11.436 119.123,-17.018c33.695,-5.582 88.832,-16.337 122.526,-23.825c33.695,-7.488 64.326,-16.677 68.07,-20.421c4.561,-4.561 1.157,-22.667 -10.211,-54.456c-9.394,-26.207 -36.894,-87.47 -61.263,-136.14c-24.369,-48.67 -68.751,-125.249 -98.702,-170.176c-29.951,-44.926 -71.338,-100.063 -91.895,-122.526c-20.557,-22.463 -54.32,-56.158 -74.877,-74.877c-20.557,-18.719 -57.315,-43.225 -81.684,-54.456l-44.246,-20.421Zm-684.106,91.895c-31.857,13.138 -86.926,37.575 -122.526,54.456c-35.601,16.881 -90.67,45.947 -122.526,64.667c-31.857,18.719 -86.926,55.477 -122.526,81.684c-35.601,26.207 -84.611,64.531 -108.912,85.088c-42.68,36.077 -43.769,37.779 -30.632,47.649c7.488,5.582 51.869,30.155 98.702,54.456c46.832,24.301 112.656,54.933 146.351,68.07c33.695,13.138 62.829,22.259 64.667,20.421c1.838,-1.838 9.53,-20.285 17.018,-40.842c7.488,-20.557 38.119,-88.015 68.07,-149.754c33.695,-69.432 79.166,-148.665 119.123,-207.614c35.601,-52.414 61.604,-96.864 57.86,-98.702c-3.744,-1.838 -32.81,7.284 -64.667,20.421Zm1085.72,-23.825c100.267,153.022 149.21,235.659 173.579,282.491c24.369,46.832 55.001,114.154 68.07,149.754c13.069,35.601 25.39,66.232 27.228,68.07c1.838,1.838 30.972,-7.284 64.667,-20.421c33.695,-13.138 101.084,-43.769 149.754,-68.07c48.67,-24.301 93.052,-48.874 98.702,-54.456c9.053,-9.053 9.053,-11.708 0,-23.825c-5.65,-7.488 -46.968,-41.182 -91.895,-74.877c-44.926,-33.695 -106.19,-76.579 -136.14,-95.298c-29.951,-18.719 -80.527,-47.785 -112.316,-64.667c-31.789,-16.881 -83.931,-41.319 -115.719,-54.456c-31.789,-13.138 -73.175,-28.453 -91.895,-34.035l-34.035,-10.211Zm-1786.843,544.562c-16.881,22.463 -50.576,71.474 -74.877,108.912c-24.301,37.439 -62.625,104.828 -85.088,149.754c-22.463,44.926 -54.592,116.945 -71.474,159.965c-16.881,43.02 -39.821,113.541 -51.053,156.561c-11.232,43.02 -26.547,113.541 -34.035,156.561c-7.488,43.02 -15.18,102.786 -17.018,132.737l-3.404,54.456l428.842,0c15.792,-31.653 46.424,-103.671 78.281,-180.386c31.857,-76.715 83.862,-200.807 115.719,-275.684c31.857,-74.877 73.175,-172.898 91.895,-217.825c18.719,-44.926 34.035,-86.313 34.035,-91.895c0,-6.331 -19.264,-17.902 -51.053,-30.632c-28.045,-11.232 -77.055,-32.674 -108.912,-47.649c-31.857,-14.975 -91.554,-47.173 -132.737,-71.474c-41.182,-24.301 -77.94,-44.246 -81.684,-44.246c-3.744,0 -20.557,18.379 -37.439,40.842Zm2481.159,-17.018c-18.719,13.138 -76.919,45.267 -129.333,71.474c-52.414,26.207 -122.867,58.336 -156.561,71.474c-33.695,13.138 -62.829,25.39 -64.667,27.228c-1.838,1.838 8.849,49.351 23.825,105.509c14.975,56.158 34.852,140.361 44.246,187.193c9.394,46.832 18.583,98.838 20.421,115.719l3.404,30.632l619.439,0c-5.241,-36.962 -19.06,-84.407 -34.035,-129.333c-14.975,-44.926 -42.544,-115.379 -61.263,-156.561c-18.719,-41.182 -50.917,-103.943 -71.474,-139.544c-20.557,-35.601 -60.446,-95.298 -88.491,-132.737c-28.045,-37.439 -55.613,-69.636 -61.263,-71.474c-5.65,-1.838 -25.526,7.284 -44.246,20.421Zm-653.474,255.263c-44.926,11.232 -124.568,26.547 -176.983,34.035c-52.414,7.488 -133.554,15.18 -180.386,17.018l-85.088,3.404l0,299.509c621.685,0 626.246,-0.204 626.246,-13.614c0,-7.488 -4.561,-38.119 -10.211,-68.07c-5.65,-29.951 -22.463,-106.53 -37.439,-170.176c-23.008,-97.613 -29.338,-116.264 -40.842,-119.123c-7.488,-1.838 -50.372,5.786 -95.298,17.018Zm-1068.702,6.807c68.547,158.263 139.067,322.108 200.807,466.281c61.74,144.173 135.324,317.207 163.368,384.597c28.045,67.39 54.116,122.526 57.86,122.526c4.493,0 5.65,-153.158 3.404,-452.667c-1.838,-248.933 -3.404,-457.296 -3.404,-462.877c0,-8.032 -9.462,-10.211 -44.246,-10.211c-24.301,0 -82.501,-4.629 -129.333,-10.211c-46.832,-5.582 -121.846,-16.337 -166.772,-23.825l-81.684,-13.614Zm-217.825,136.14c-11.232,29.951 -64.803,158.604 -119.123,285.895c-54.32,127.291 -100.267,236.067 -102.105,241.649c-2.995,8.985 27.637,10.211 248.456,10.211c220.82,0 251.451,-1.225 248.456,-10.211c-1.838,-5.582 -29.406,-73.039 -61.263,-149.754c-31.857,-76.715 -85.428,-203.87 -119.123,-282.491c-33.695,-78.621 -64.326,-144.513 -68.07,-146.351c-3.744,-1.838 -15.996,21.102 -27.228,51.053Zm844.071,415.228c0,701.668 1.566,906.899 3.404,908.737c1.838,1.838 52.414,-11.912 112.316,-30.632c66.573,-20.829 140.701,-49.895 190.597,-74.877c44.926,-22.463 103.126,-54.592 129.333,-71.474c26.207,-16.881 76.715,-52.074 112.316,-78.281c35.601,-26.207 64.667,-50.712 64.667,-54.456c0,-3.744 -18.379,-29.815 -40.842,-57.86c-22.463,-28.045 -59.221,-78.621 -81.684,-112.316c-22.463,-33.695 -60.719,-102.65 -85.088,-153.158c-24.369,-50.508 -45.811,-99.519 -47.649,-108.912l-3.404,-17.018l211.018,0c52.754,100.267 86.449,156.902 108.912,190.597c22.463,33.695 53.095,73.516 68.07,88.491l27.228,27.228c52.754,-68.615 84.952,-114.562 105.509,-146.351c20.557,-31.789 54.32,-93.12 74.877,-136.14c20.557,-43.02 43.565,-95.162 51.053,-115.719c7.488,-20.557 13.614,-42.067 13.614,-47.649c0,-8.985 -60.855,-10.211 -507.123,-10.211l-507.123,0Zm1232.071,0c-26.411,89.717 -44.79,141.722 -57.86,173.579c-13.069,31.857 -39.14,86.926 -57.86,122.526c-18.719,35.601 -53.912,95.298 -78.281,132.737c-24.369,37.439 -62.625,89.512 -85.088,115.719c-22.463,26.207 -40.842,50.712 -40.842,54.456c0,3.744 18.379,20.557 40.842,37.439c22.463,16.881 66.913,47.513 98.702,68.07c31.789,20.557 80.867,49.691 108.912,64.667c28.045,14.975 86.245,42.544 129.333,61.263c43.088,18.719 81.344,34.035 85.088,34.035c3.744,0 12.933,-15.316 20.421,-34.035c7.488,-18.719 27.364,-75.422 44.246,-125.93c16.881,-50.508 38.255,-130.15 47.649,-176.983c9.394,-46.832 20.081,-121.846 23.825,-166.772c3.744,-44.926 5.241,-135.324 3.404,-200.807c-1.838,-65.484 -4.969,-128.312 -6.807,-139.544l-3.404,-20.421l-272.281,0Zm-2954.247,319.93c10.551,105.509 21.238,171.333 30.632,214.421c9.394,43.088 32.333,124.228 51.053,180.386c18.719,56.158 37.098,105.168 40.842,108.912c4.561,4.561 20.421,-26.071 47.649,-91.895c22.463,-54.32 68.411,-163.028 102.105,-241.649c33.695,-78.621 62.829,-149.074 64.667,-156.561c3.335,-13.342 0,-13.614 -166.772,-13.614l-170.176,0Zm564.983,0c-36.962,89.648 -59.902,143.288 -74.877,176.983c-14.975,33.695 -62.488,145.534 -105.509,248.456c-43.02,102.922 -96.66,228.58 -119.123,279.088c-33.491,75.286 -58.677,154.587 -139.544,439.053c-54.32,190.937 -97.136,348.724 -95.298,350.562c1.838,1.838 116.74,-36.418 255.263,-85.088c138.523,-48.67 290.115,-99.246 336.948,-112.316c46.832,-13.069 95.775,-23.825 108.912,-23.825c16.473,0 56.498,16.881 129.333,54.456c57.996,29.951 134.575,66.709 170.176,81.684c35.601,14.975 66.232,25.662 68.07,23.825c1.838,-1.838 -19.604,-37.098 -47.649,-78.281c-28.045,-41.182 -67.934,-105.509 -88.491,-142.947c-20.557,-37.439 -49.691,-94.141 -64.667,-125.93c-14.975,-31.789 -31.857,-73.175 -37.439,-91.895c-6.331,-21.17 -14.091,-34.035 -20.421,-34.035c-5.582,0 -40.842,12.253 -78.281,27.228c-37.439,14.975 -106.326,45.607 -153.158,68.07l-85.088,40.842c-73.856,-73.856 -104.488,-107.551 -115.719,-122.526l-20.421,-27.228c31.653,-21.102 88.355,-51.733 146.351,-81.684c57.996,-29.951 134.575,-63.646 170.176,-74.877c43.837,-13.886 64.667,-23.688 64.667,-30.632c0,-5.65 -10.687,-46.968 -23.825,-91.895c-13.138,-44.926 -34.512,-135.324 -47.649,-200.807c-13.138,-65.484 -28.453,-152.818 -34.035,-194l-10.211,-74.877l204.211,0c5.241,26.411 9.87,55.477 13.614,81.684c3.744,26.207 17.494,99.723 30.632,163.368c13.138,63.646 33.014,146.351 44.246,183.79c11.232,37.439 21.987,69.636 23.825,71.474c1.838,1.838 50.917,-8.849 108.912,-23.825c57.996,-14.975 139.204,-31.789 180.386,-37.439c41.182,-5.65 111.635,-13.274 156.561,-17.018c44.926,-3.744 83.25,-8.373 85.088,-10.211c1.838,-1.838 -18.039,-53.912 -44.246,-115.719c-26.207,-61.808 -69.091,-162.824 -95.298,-224.632c-26.207,-61.808 -62.965,-146.011 -81.684,-187.193l-34.035,-74.877l-680.702,-6.807Zm1912.773,422.035c-79.098,68.615 -129.674,106.87 -163.368,129.333c-33.695,22.463 -90.329,57.724 -125.93,78.281l-64.667,37.439c57.996,10.551 117.761,25.867 170.176,40.842c52.414,14.975 144.309,45.607 204.211,68.07c59.902,22.463 151.797,62.284 204.211,88.491c52.414,26.207 107.551,55.273 122.526,64.667l27.228,17.018c63.305,-84.407 97,-131.92 115.719,-159.965c22.667,-34.035 31.789,-53.299 27.228,-57.86c-3.744,-3.744 -45.062,-23.688 -91.895,-44.246c-46.832,-20.557 -111.159,-51.189 -142.947,-68.07c-31.789,-16.881 -90.057,-55.137 -129.333,-85.088c-39.277,-29.951 -89.853,-66.709 -112.316,-81.684l-40.842,-27.228Zm-1109.544,405.018c-37.439,5.65 -95.639,14.771 -129.333,20.421c-33.695,5.65 -90.329,17.834 -125.93,27.228c-35.601,9.394 -66.232,18.583 -68.07,20.421c-1.838,1.838 2.723,18.719 10.211,37.439c7.488,18.719 28.93,64.667 47.649,102.105c18.719,37.439 52.414,98.702 74.877,136.14c22.463,37.439 57.724,91.078 78.281,119.123c20.557,28.045 65.007,78.621 98.702,112.316c33.695,33.695 79.642,72.018 102.105,85.088c22.463,13.069 45.471,23.825 51.053,23.825c8.917,0 10.211,-43.088 10.211,-347.158l0,-347.158c-63.305,0 -112.316,4.561 -149.754,10.211Zm353.965,-10.211l0,690.913c0,1.838 4.561,3.404 10.211,3.404c5.65,0 33.218,-15.316 61.263,-34.035c28.045,-18.719 69.432,-52.414 91.895,-74.877c22.463,-22.463 54.592,-57.724 71.474,-78.281c16.881,-20.557 47.513,-61.944 68.07,-91.895c20.557,-29.951 65.007,-111.159 98.702,-180.386c33.695,-69.227 61.263,-133.554 61.263,-142.947c0,-15.452 -5.241,-18.583 -57.86,-34.035c-31.789,-9.394 -103.807,-24.641 -159.965,-34.035c-56.158,-9.394 -134.303,-18.583 -173.579,-20.421l-71.474,-3.404Zm650.07,187.193c-9.394,24.369 -36.894,85.632 -61.263,136.14c-24.369,50.508 -68.751,128.653 -98.702,173.579c-29.951,44.926 -60.582,89.308 -68.07,98.702c-7.488,9.394 -12.048,18.583 -10.211,20.421c1.838,1.838 41.659,-11.912 88.491,-30.632c46.832,-18.719 121.846,-55.477 166.772,-81.684c44.926,-26.207 109.253,-66.028 142.947,-88.491c33.695,-22.463 82.705,-60.719 108.912,-85.088c26.207,-24.369 49.215,-47.309 51.053,-51.053c1.838,-3.744 -27.228,-22.123 -64.667,-40.842c-37.439,-18.719 -101.765,-47.785 -142.947,-64.667c-41.182,-16.881 -79.438,-30.632 -85.088,-30.632c-6.262,0 -16.745,17.018 -27.228,44.246Z" style="fill:#3bb172;"/><path d="M2026.666,506.455l6.807,707.93l-44.246,-3.404c-24.301,-1.838 -74.877,-6.467 -112.316,-10.211c-37.439,-3.744 -94.073,-11.436 -125.93,-17.018c-31.857,-5.582 -86.926,-16.337 -122.526,-23.825c-42.272,-8.917 -65.824,-17.154 -68.07,-23.825c-1.838,-5.582 14.975,-51.529 37.439,-102.105c22.463,-50.576 60.787,-127.155 85.088,-170.176c24.301,-43.02 62.625,-102.786 85.088,-132.737c22.463,-29.951 53.095,-68.206 68.07,-85.088c14.975,-16.881 47.173,-45.947 71.474,-64.667c24.301,-18.719 61.127,-43.225 119.123,-74.877Z" style="fill:#2c3134;"/><path d="M2237.683,506.455l44.246,20.421c24.369,11.232 61.127,35.737 81.684,54.456c20.557,18.719 54.32,52.414 74.877,74.877c20.557,22.463 61.944,77.6 91.895,122.526c29.951,44.926 74.333,121.505 98.702,170.176c24.369,48.67 51.869,109.933 61.263,136.14c11.368,31.789 14.771,49.895 10.211,54.456c-3.744,3.744 -34.375,12.933 -68.07,20.421c-33.695,7.488 -88.832,18.243 -122.526,23.825c-33.695,5.582 -87.334,13.274 -119.123,17.018c-31.789,3.744 -79.302,6.807 -105.509,6.807c-26.207,0 -47.649,-1.566 -47.649,-3.404l0,-697.72Z" style="fill:#2c3235;"/><path d="M1553.578,598.35c31.857,-13.138 60.923,-22.259 64.667,-20.421c3.744,1.838 -22.259,46.288 -57.86,98.702c-39.957,58.949 -85.428,138.183 -119.123,207.614c-29.951,61.74 -60.582,129.197 -68.07,149.754c-7.488,20.557 -15.18,39.004 -17.018,40.842c-1.838,1.838 -30.972,-7.284 -64.667,-20.421c-33.695,-13.138 -99.519,-43.769 -146.351,-68.07c-46.832,-24.301 -91.214,-48.874 -98.702,-54.456c-13.138,-9.87 -12.048,-11.572 30.632,-47.649c24.301,-20.557 73.312,-58.881 108.912,-85.088c35.601,-26.207 90.67,-62.965 122.526,-81.684c31.857,-18.719 86.926,-47.785 122.526,-64.667c35.601,-16.881 90.67,-41.319 122.526,-54.456Z" style="fill:#2a3133;"/><path d="M2639.298,574.526l34.035,10.211c18.719,5.582 60.106,20.898 91.895,34.035c31.789,13.138 83.931,37.575 115.719,54.456c31.789,16.881 82.365,45.947 112.316,64.667c29.951,18.719 91.214,61.604 136.14,95.298c44.926,33.695 86.245,67.39 91.895,74.877c9.053,12.116 9.053,14.771 0,23.825c-5.65,5.582 -50.032,30.155 -98.702,54.456c-48.67,24.301 -116.06,54.933 -149.754,68.07c-33.695,13.138 -62.829,22.259 -64.667,20.421c-1.838,-1.838 -14.159,-32.469 -27.228,-68.07c-13.069,-35.601 -43.701,-102.922 -68.07,-149.754c-24.369,-46.832 -73.312,-129.47 -173.579,-282.491Z" style="fill:#2a3033;"/><path d="M852.455,1119.087c16.881,-22.463 33.695,-40.842 37.439,-40.842c3.744,0 40.502,19.945 81.684,44.246c41.182,24.301 100.88,56.498 132.737,71.474c31.857,14.975 80.867,36.418 108.912,47.649c31.789,12.729 51.053,24.301 51.053,30.632c0,5.582 -15.316,46.968 -34.035,91.895c-18.719,44.926 -60.038,142.947 -91.895,217.825c-31.857,74.877 -83.862,198.969 -115.719,275.684c-31.857,76.715 -62.488,148.733 -78.281,180.386l-428.842,0l3.404,-54.456c1.838,-29.951 9.53,-89.717 17.018,-132.737c7.488,-43.02 22.804,-113.541 34.035,-156.561c11.232,-43.02 34.171,-113.541 51.053,-156.561c16.881,-43.02 49.011,-115.039 71.474,-159.965c22.463,-44.926 60.787,-112.316 85.088,-149.754c24.301,-37.439 57.996,-86.449 74.877,-108.912Z" style="fill:#2d3236;"/><path d="M3333.614,1102.07c18.719,-13.138 38.596,-22.259 44.246,-20.421c5.65,1.838 33.218,34.035 61.263,71.474c28.045,37.439 67.934,97.136 88.491,132.737c20.557,35.601 52.754,98.361 71.474,139.544c18.719,41.182 46.288,111.635 61.263,156.561c14.975,44.926 28.794,92.371 34.035,129.333l-619.439,0l-3.404,-30.632c-1.838,-16.881 -11.027,-68.887 -20.421,-115.719c-9.394,-46.832 -29.27,-131.035 -44.246,-187.193c-14.975,-56.158 -25.662,-103.671 -23.825,-105.509c1.838,-1.838 30.972,-14.091 64.667,-27.228c33.695,-13.138 104.147,-45.267 156.561,-71.474c52.414,-26.207 110.614,-58.336 129.333,-71.474Z" style="fill:#2d3235;"/><path d="M2680.14,1357.333c44.926,-11.232 87.811,-18.855 95.298,-17.018c11.504,2.859 17.834,21.51 40.842,119.123c14.975,63.646 31.789,140.225 37.439,170.176c5.65,29.951 10.211,60.582 10.211,68.07c0,13.41 -4.561,13.614 -626.246,13.614l0,-299.509l85.088,-3.404c46.832,-1.838 127.972,-9.53 180.386,-17.018c52.414,-7.488 132.056,-22.804 176.983,-34.035Z" style="fill:#2c3235;"/><path d="M1611.437,1364.14l81.684,13.614c44.926,7.488 119.94,18.243 166.772,23.825c46.832,5.582 105.032,10.211 129.333,10.211c34.784,0 44.246,2.178 44.246,10.211c0,5.582 1.566,213.945 3.404,462.877c2.246,299.509 1.089,452.667 -3.404,452.667c-3.744,0 -29.815,-55.137 -57.86,-122.526c-28.045,-67.39 -101.629,-240.424 -163.368,-384.597c-61.74,-144.173 -132.26,-308.018 -200.807,-466.281Z" style="fill:#2b3133;"/><path d="M1393.613,1500.28c11.232,-29.951 23.484,-52.891 27.228,-51.053c3.744,1.838 34.375,67.73 68.07,146.351c33.695,78.621 87.266,205.776 119.123,282.491c31.857,76.715 59.425,144.173 61.263,149.754c2.995,8.985 -27.637,10.211 -248.456,10.211c-220.82,0 -251.451,-1.225 -248.456,-10.211c1.838,-5.582 47.785,-114.358 102.105,-241.649c54.32,-127.291 107.891,-255.944 119.123,-285.895Z" style="fill:#2c3134;"/><path d="M2237.683,1915.509l507.123,0c446.268,0 507.123,1.225 507.123,10.211c0,5.582 -6.126,27.092 -13.614,47.649c-7.488,20.557 -30.495,72.699 -51.053,115.719c-20.557,43.02 -54.32,104.352 -74.877,136.14c-20.557,31.789 -52.754,77.736 -105.509,146.351l-27.228,-27.228c-14.975,-14.975 -45.607,-54.797 -68.07,-88.491c-22.463,-33.695 -56.158,-90.329 -108.912,-190.597l-211.018,0l3.404,17.018c1.838,9.394 23.28,58.404 47.649,108.912c24.369,50.508 62.625,119.463 85.088,153.158c22.463,33.695 59.221,84.271 81.684,112.316c22.463,28.045 40.842,54.116 40.842,57.86c0,3.744 -29.066,28.249 -64.667,54.456c-35.601,26.207 -86.109,61.399 -112.316,78.281c-26.207,16.881 -84.407,49.011 -129.333,71.474c-49.895,24.982 -124.024,54.048 -190.597,74.877c-59.902,18.719 -110.478,32.469 -112.316,30.632c-1.838,-1.838 -3.404,-207.07 -3.404,-908.737Z" style="fill:#2c3235;"/><path d="M3469.754,1915.509l272.281,0l3.404,20.421c1.838,11.232 4.969,74.06 6.807,139.544c1.838,65.484 0.34,155.881 -3.404,200.807c-3.744,44.926 -14.431,119.94 -23.825,166.772c-9.394,46.832 -30.768,126.474 -47.649,176.983c-16.881,50.508 -36.758,107.211 -44.246,125.93c-7.488,18.719 -16.677,34.035 -20.421,34.035c-3.744,0 -41.999,-15.316 -85.088,-34.035c-43.088,-18.719 -101.288,-46.288 -129.333,-61.263c-28.045,-14.975 -77.124,-44.109 -108.912,-64.667c-31.789,-20.557 -76.239,-51.189 -98.702,-68.07c-22.463,-16.881 -40.842,-33.695 -40.842,-37.439c0,-3.744 18.379,-28.249 40.842,-54.456c22.463,-26.207 60.719,-78.281 85.088,-115.719c24.369,-37.439 59.561,-97.136 78.281,-132.737c18.719,-35.601 44.79,-90.67 57.86,-122.526c13.069,-31.857 31.448,-83.862 57.86,-173.579Z" style="fill:#2d3235;"/><path d="M515.507,2235.439l170.176,0c166.772,0 170.107,0.272 166.772,13.614c-1.838,7.488 -30.972,77.94 -64.667,156.561c-33.695,78.621 -79.642,187.329 -102.105,241.649c-27.228,65.824 -43.088,96.455 -47.649,91.895c-3.744,-3.744 -22.123,-52.754 -40.842,-108.912c-18.719,-56.158 -41.659,-137.298 -51.053,-180.386c-9.394,-43.088 -20.081,-108.912 -30.632,-214.421Z" style="fill:#2b3133;"/><path d="M1080.49,2235.439l680.702,6.807l34.035,74.877c18.719,41.182 55.477,125.385 81.684,187.193c26.207,61.808 69.091,162.824 95.298,224.632c26.207,61.808 46.084,113.881 44.246,115.719c-1.838,1.838 -40.161,6.467 -85.088,10.211c-44.926,3.744 -115.379,11.368 -156.561,17.018c-41.182,5.65 -122.39,22.463 -180.386,37.439c-57.996,14.975 -107.074,25.662 -108.912,23.825c-1.838,-1.838 -12.593,-34.035 -23.825,-71.474c-11.232,-37.439 -31.108,-120.144 -44.246,-183.79c-13.138,-63.646 -26.888,-137.161 -30.632,-163.368c-3.744,-26.207 -8.373,-55.273 -13.614,-81.684l-204.211,0l10.211,74.877c5.582,41.182 20.898,128.517 34.035,194c13.138,65.484 34.512,155.881 47.649,200.807c13.138,44.926 23.825,86.245 23.825,91.895c0,6.943 -20.829,16.745 -64.667,30.632c-35.601,11.232 -112.18,44.926 -170.176,74.877c-57.996,29.951 -114.698,60.582 -146.351,81.684l20.421,27.228c11.232,14.975 41.863,48.67 115.719,122.526l85.088,-40.842c46.832,-22.463 115.719,-53.095 153.158,-68.07c37.439,-14.975 72.699,-27.228 78.281,-27.228c6.331,0 14.091,12.865 20.421,34.035c5.582,18.719 22.463,60.106 37.439,91.895c14.975,31.789 44.109,88.491 64.667,125.93c20.557,37.439 60.446,101.765 88.491,142.947c28.045,41.182 49.487,76.443 47.649,78.281c-1.838,1.838 -32.469,-8.849 -68.07,-23.825c-35.601,-14.975 -112.18,-51.733 -170.176,-81.684c-72.835,-37.575 -112.86,-54.456 -129.333,-54.456c-13.138,0 -62.08,10.755 -108.912,23.825c-46.832,13.069 -198.425,63.646 -336.948,112.316c-138.523,48.67 -253.425,86.926 -255.263,85.088c-1.838,-1.838 40.978,-159.625 95.298,-350.562c80.867,-284.465 106.053,-363.767 139.544,-439.053c22.463,-50.508 76.102,-176.166 119.123,-279.088c43.02,-102.922 90.533,-214.762 105.509,-248.456c14.975,-33.695 37.915,-87.334 74.877,-176.983Z" style="fill:#2c3235;"/><path d="M2993.263,2657.474l40.842,27.228c22.463,14.975 73.039,51.733 112.316,81.684c39.277,29.951 97.545,68.206 129.333,85.088c31.789,16.881 96.115,47.513 142.947,68.07c46.832,20.557 88.151,40.502 91.895,44.246c4.561,4.561 -4.561,23.825 -27.228,57.86c-18.719,28.045 -52.414,75.558 -115.719,159.965l-27.228,-17.018c-14.975,-9.394 -70.112,-38.46 -122.526,-64.667c-52.414,-26.207 -144.309,-66.028 -204.211,-88.491c-59.902,-22.463 -151.797,-53.095 -204.211,-68.07c-52.414,-14.975 -112.18,-30.291 -170.176,-40.842l64.667,-37.439c35.601,-20.557 92.235,-55.818 125.93,-78.281c33.695,-22.463 84.271,-60.719 163.368,-129.333Z" style="fill:#2b3133;"/><path d="M1883.718,3062.492c37.439,-5.65 86.449,-10.211 149.754,-10.211l0,347.158c0,304.07 -1.293,347.158 -10.211,347.158c-5.582,0 -28.589,-10.755 -51.053,-23.825c-22.463,-13.069 -68.411,-51.393 -102.105,-85.088c-33.695,-33.695 -78.145,-84.271 -98.702,-112.316c-20.557,-28.045 -55.818,-81.684 -78.281,-119.123c-22.463,-37.439 -56.158,-98.702 -74.877,-136.14c-18.719,-37.439 -40.161,-83.386 -47.649,-102.105c-7.488,-18.719 -12.048,-35.601 -10.211,-37.439c1.838,-1.838 32.469,-11.027 68.07,-20.421c35.601,-9.394 92.235,-21.578 125.93,-27.228c33.695,-5.65 91.895,-14.771 129.333,-20.421Z" style="fill:#2c3134;"/><path d="M2237.683,3052.281l71.474,3.404c39.277,1.838 117.421,11.027 173.579,20.421c56.158,9.394 128.176,24.641 159.965,34.035c52.618,15.452 57.86,18.583 57.86,34.035c0,9.394 -27.568,73.72 -61.263,142.947c-33.695,69.227 -78.145,150.435 -98.702,180.386c-20.557,29.951 -51.189,71.338 -68.07,91.895c-16.881,20.557 -49.011,55.818 -71.474,78.281c-22.463,22.463 -63.85,56.158 -91.895,74.877c-28.045,18.719 -55.613,34.035 -61.263,34.035c-5.65,0 -10.211,-1.566 -10.211,-3.404l0,-690.913Z" style="fill:#2d3335;"/><path d="M2887.754,3239.474c10.483,-27.228 20.966,-44.246 27.228,-44.246c5.65,0 43.905,13.75 85.088,30.632c41.182,16.881 105.509,45.947 142.947,64.667c37.439,18.719 66.505,37.098 64.667,40.842c-1.838,3.744 -24.846,26.684 -51.053,51.053c-26.207,24.369 -75.218,62.625 -108.912,85.088c-33.695,22.463 -98.021,62.284 -142.947,88.491c-44.926,26.207 -119.94,62.965 -166.772,81.684c-46.832,18.719 -86.653,32.469 -88.491,30.632c-1.838,-1.838 2.723,-11.027 10.211,-20.421c7.488,-9.394 38.119,-53.775 68.07,-98.702c29.951,-44.926 74.333,-123.071 98.702,-173.579c24.369,-50.508 51.869,-111.771 61.263,-136.14Z" style="fill:#2c3234;"/></svg>